PathFileType	4	(X/Y/Z)	C:\Users\Basilio\Documents\Thesis Gigler\squatting_fais\c3dfiles\040\SJ_pre3\markers_experimental.trc
DataRate	CameraRate	NumFrames	NumMarkers	Units	OrigDataRate	OrigDataStartFrame	OrigNumFrames
200.000000	200.000000	4	63	mm	200.000000	312	1251
Frame#	Time	FHD			LBHD			RBHD			C7			T10			CLAV			LSHO			LUUPA			LMUPA			LDUPA			LLEP			LMEP			LRAD			LUL			LRFIN			RSHO			RUPA1			RMUPA			RDUPA			RLEP			RMEP			RRAD			RUL			RUFIN			LASI			RASI			USACR			LSACR			RSACR			LTHI1			LTHI2			LTHI3			LTHI4			LLFC			LMFC			LTIB1			LTIB2			LTIB3			LTIB4			LLMAL			LMMAL			LHEE			LMT1			LMT2			LMT5			RTHI			RTHI2			RTHI3			RTHI4			RLFC			RMFC			RTIB1			RTIB2			RTIB3			RTIB4			RLMAL			RMMAL			RHEE			RMT1			RMT2			RMT5			*61			*62			
		X1	Y1	Z1	X2	Y2	Z2	X3	Y3	Z3	X4	Y4	Z4	X5	Y5	Z5	X6	Y6	Z6	X7	Y7	Z7	X8	Y8	Z8	X9	Y9	Z9	X10	Y10	Z10	X11	Y11	Z11	X12	Y12	Z12	X13	Y13	Z13	X14	Y14	Z14	X15	Y15	Z15	X16	Y16	Z16	X17	Y17	Z17	X18	Y18	Z18	X19	Y19	Z19	X20	Y20	Z20	X21	Y21	Z21	X22	Y22	Z22	X23	Y23	Z23	X24	Y24	Z24	X25	Y25	Z25	X26	Y26	Z26	X27	Y27	Z27	X28	Y28	Z28	X29	Y29	Z29	X30	Y30	Z30	X31	Y31	Z31	X32	Y32	Z32	X33	Y33	Z33	X34	Y34	Z34	X35	Y35	Z35	X36	Y36	Z36	X37	Y37	Z37	X38	Y38	Z38	X39	Y39	Z39	X40	Y40	Z40	X41	Y41	Z41	X42	Y42	Z42	X43	Y43	Z43	X44	Y44	Z44	X45	Y45	Z45	X46	Y46	Z46	X47	Y47	Z47	X48	Y48	Z48	X49	Y49	Z49	X50	Y50	Z50	X51	Y51	Z51	X52	Y52	Z52	X53	Y53	Z53	X54	Y54	Z54	X55	Y55	Z55	X56	Y56	Z56	X57	Y57	Z57	X58	Y58	Z58	X59	Y59	Z59	X60	Y60	Z60	X61	Y61	Z61	X62	Y62	Z62	X63	Y63	Z63	

313	1.56	-80.71615600585939	1614.146240234375	-891.4678955078127	-212.9806365966797	1584.127563476563	-933.0307617187502	-272.1266174316407	1556.2978515625	-801.224548339844	-310.4965820312501	1461.868896484375	-850.640563964844	-464.4425659179689	1180.318115234375	-851.624938964844	-217.0717926025391	1351.53515625	-840.2993164062502	-241.0045471191407	1417.579223632813	-1012.919067382813	-339.8941345214844	1323.523071289063	-1171.891357421875	-343.3290710449219	1274.371704101563	-1166.67138671875	-378.3688354492188	1283.711059570313	-1214.0673828125	-421.0478515625001	1251.286376953125	-1257.700073242188	-484.1385192871095	1272.0654296875	-1219.517211914063	-495.0115356445314	1030.631103515625	-1078.948974609375	-455.8428649902345	989.447448730469	-1128.677734375	-446.2565917968751	1024.71630859375	-1034.03759765625	-255.5967864990235	1403.902587890625	-671.7885742187501	-383.9340515136719	1349.937377929688	-518.3400878906251	-379.6953125000001	1300.461547851563	-510.1029357910157	-423.5512695312501	1314.9970703125	-471.6045227050782	-457.3745117187501	1263.150146484375	-431.5451049804689	-525.9639892578126	1272.336669921875	-483.9738769531251	-458.4983215332032	1054.766723632813	-628.3918457031251	-436.2000732421876	1007.574645996094	-572.2552490234376	-401.5858764648439	1045.101928710938	-673.1760864257814	-369.5617065429688	957.5252075195315	-948.078063964844	-377.4476928710938	954.7150878906252	-739.5876464843751	-534.9144287109376	1055.324951171875	-845.6231079101565	-549.8421020507814	1028.183471679688	-874.0974731445315	-555.1983642578126	1029.326171875	-818.214538574219	-426.9478149414064	731.3494873046876	-1064.510864257813	-361.5251159667969	682.2355957031251	-1086.95654296875	-319.6639099121094	704.2694702148439	-1085.146362304688	-356.9341125488282	622.2336425781251	-1081.610717773438	-288.9398498535157	515.2636108398439	-1098.011352539063	-287.5079956054688	477.5133666992189	-977.1363525390627	-294.7644653320313	290.3159484863282	-1090.222778320313	-373.8232727050782	277.6596069335938	-1131.30712890625	-334.4247436523438	258.1587524414063	-1120.161376953125	-346.3602294921876	177.1725311279297	-1096.01123046875	-433.3662109375001	103.3834228515625	-1118.909423828125	-393.0196228027345	107.0941162109375	-1036.21484375	-487.9082336425782	43.13066864013673	-1074.562255859375	-266.0819091796876	59.73897552490236	-1076.068115234375	-271.2066040039063	57.52373123168947	-1122.299194335938	-321.7525329589844	32.12371826171876	-1167.088500976563	-396.8898315429689	735.6271362304689	-619.1882934570314	-344.5216674804688	693.7197875976564	-609.4785766601564	-313.5195922851563	704.7348022460939	-615.2734375000001	-346.9328002929688	609.3690185546876	-615.0205078125001	-302.4056091308594	495.6768493652345	-607.3715209960939	-288.5684814453126	478.6766967773439	-734.4127807617189	-303.6748657226563	305.8397521972657	-617.3980102539064	-400.2590637207032	259.4890441894532	-601.6177368164064	-358.5911865234376	240.2277221679688	-605.6936035156251	-355.2873535156251	189.2531280517578	-635.3110961914064	-444.4079895019532	100.0268707275391	-617.6838989257814	-409.9100952148439	104.677978515625	-702.2431640625001	-499.8499755859376	47.43935012817384	-678.5272827148439	-279.6211853027344	56.7938575744629	-641.4787597656251	-290.9970397949219	59.6473731994629	-602.4251708984376	-341.7308959960938	35.23738479614259	-558.0444335937501	nan	nan	nan	nan	nan	nan	
314	1.565	-80.27368164062501	1610.100830078125	-891.3725585937502	-211.3040924072266	1579.397338867188	-933.0571899414065	-270.9784851074219	1551.636352539063	-801.2478637695315	-309.3194274902344	1458.03076171875	-850.6238403320315	-464.350311279297	1176.985229492188	-851.6365966796877	-216.0326080322266	1346.552490234375	-840.3381958007815	-239.4641113281251	1413.368774414063	-1012.93310546875	-338.5688171386719	1319.854858398438	-1172.05859375	-342.3521423339844	1271.052001953125	-1167.184448242188	-377.3478393554688	1280.24365234375	-1214.282104492188	-420.0482788085939	1248.175659179688	-1258.010375976563	-482.8029174804689	1269.314086914063	-1219.776977539063	-496.0903320312501	1028.264892578125	-1079.060180664063	-457.3646240234376	986.593933105469	-1128.6123046875	-446.949920654297	1021.500183105469	-1034.123168945313	-254.0989227294922	1399.359130859375	-671.7212524414064	-382.8432922363282	1346.147094726563	-518.7041015625001	-378.8157958984376	1297.0185546875	-510.479949951172	-422.7207641601564	1311.736938476563	-471.9088745117189	-456.7997436523439	1260.01953125	-431.5636291503907	-525.3734130859376	1269.821411132813	-484.2403869628907	-459.4612731933595	1051.87255859375	-628.5967407226564	-437.4565734863282	1004.440795898438	-572.1644897460939	-402.293914794922	1041.994750976563	-673.3278808593751	-371.2630004882813	954.3037719726565	-948.006286621094	-379.1233520507813	951.0136718750002	-739.5948486328126	-535.8027954101564	1052.44091796875	-845.6000976562502	-550.7905883789064	1025.400024414063	-874.0985107421877	-556.2514648437501	1026.494262695313	-818.2319335937502	-426.792449951172	728.8690795898439	-1065.148559570313	-360.4737548828126	680.4412231445314	-1087.702758789063	-318.9029846191407	702.8433227539064	-1085.713256835938	-355.4667968750001	620.6022338867189	-1082.610229492188	-286.6242675781251	514.6185302734376	-1098.677001953125	-284.8063659667969	475.9128417968751	-977.9663085937502	-293.2181701660157	290.2600402832032	-1090.43408203125	-372.2240600585938	277.1496276855469	-1131.673217773438	-332.9272460937501	257.4530639648438	-1120.157348632813	-345.6440734863282	176.2495422363282	-1095.995849609375	-432.9943237304689	103.294662475586	-1118.981079101563	-392.7162475585939	106.941162109375	-1036.172729492188	-487.9132080078126	43.12083435058594	-1074.551025390625	-266.0966491699219	59.73775482177736	-1076.068481445313	-271.1540832519532	57.48744583129884	-1122.333862304688	-321.7781982421876	32.13533401489259	-1167.092041015625	-396.6402587890626	733.2448730468751	-618.7888793945314	-344.2021179199219	691.7341918945314	-609.2796630859376	-312.6301879882813	703.2095336914064	-614.8966064453126	-345.2882690429688	607.4898071289064	-614.7731323242189	-300.1934509277344	494.4683532714845	-606.8200073242189	-286.0184326171876	477.6004638671876	-733.9583740234376	-301.9545593261719	304.5847778320313	-617.3502807617189	-399.2144775390626	258.9615783691407	-601.4830322265626	-357.2213745117188	239.6935119628907	-605.9446411132814	-354.6289367675782	188.6834411621094	-635.2786865234376	-444.1878051757814	100.0731735229492	-617.7744750976564	-409.7193298339845	104.5155944824219	-702.3139038085939	-499.8008422851564	47.43035507202149	-678.5986938476564	-279.4859619140626	56.45858383178712	-641.3912963867189	-290.9713745117188	59.79293441772462	-602.4063720703126	-341.7095642089844	35.26372146606446	-558.0690917968751	nan	nan	nan	nan	nan	nan	
315	1.57	-79.2505340576172	1605.163330078125	-891.1173095703127	-209.8255310058594	1574.512084960938	-932.9937133789065	-269.3789978027344	1546.62548828125	-801.1474609375002	-307.3096008300782	1453.098388671875	-850.7957153320315	-464.3032531738282	1173.479614257813	-851.5942382812502	-214.8488922119141	1342.184814453125	-840.3566894531252	-237.6879119873047	1408.380126953125	-1012.836303710938	-337.2872619628907	1315.861938476563	-1171.864624023438	-341.3678894042969	1267.140502929688	-1167.379150390625	-376.1377868652344	1276.636962890625	-1214.515380859375	-419.2052307128907	1245.008178710938	-1258.2412109375	-482.1286010742189	1266.976196289063	-1220.1083984375	-497.1754760742189	1025.9130859375	-1078.947631835938	-458.6491088867189	983.9545898437502	-1128.78173828125	-448.352020263672	1019.166137695313	-1033.965087890625	-252.4412994384766	1394.610473632813	-671.8895874023439	-381.6512756347657	1342.384399414063	-518.8245849609376	-378.1768493652344	1293.488525390625	-510.5303649902345	-421.8349914550782	1308.338623046875	-472.0013732910157	-456.5784606933595	1257.237915039063	-432.0072631835939	-524.5888671875001	1266.835327148438	-484.4161071777345	-460.4429321289064	1048.878295898438	-628.8674316406251	-438.5832824707032	1001.244750976563	-572.3076782226564	-403.447235107422	1038.372314453125	-673.4718627929689	-372.8188476562501	950.7943115234377	-948.0832519531252	-380.0354614257813	947.2515869140627	-740.0450439453126	-536.5437622070314	1049.872314453125	-845.6204833984377	-551.7010498046876	1022.567077636719	-874.1116333007815	-557.1366577148439	1023.505493164063	-818.251403808594	-426.4390563964845	726.1756591796876	-1065.89794921875	-359.7638854980469	678.7704467773439	-1088.451782226563	-317.8869628906251	701.3145141601564	-1086.043090820313	-353.9644775390626	618.7080078125001	-1083.529052734375	-284.1540222167969	513.4989013671876	-1099.292602539063	-282.4743652343751	475.6330871582032	-978.2742919921877	-291.6200561523438	289.0857849121094	-1090.922973632813	-370.8878479003907	276.7088317871094	-1131.927978515625	-332.3199768066407	256.8332824707032	-1120.094604492188	-345.1554870605469	175.6006927490235	-1095.93115234375	-432.5772399902345	103.134391784668	-1119.0927734375	-392.4930419921876	106.9139404296875	-1036.192138671875	-487.8943786621095	43.12329101562501	-1074.560668945313	-266.0445251464844	59.75791549682619	-1076.162353515625	-271.1404418945313	57.49060058593751	-1122.283813476563	-321.7713012695313	32.1378402709961	-1167.093383789063	-396.3106384277345	730.8277587890626	-618.2281494140626	-342.9373779296876	689.7356567382814	-608.4044189453126	-312.3620605468751	701.5950927734376	-614.3372192382814	-343.7236022949219	605.7038574218751	-614.0830688476564	-297.4167480468751	493.1929626464845	-606.4738159179689	-283.6287231445313	476.5616455078126	-733.4168090820314	-300.7269287109376	303.7818298339844	-617.1760253906251	-397.7998046875001	258.7442932128907	-601.4306640625001	-356.0872497558594	239.1601867675782	-605.8233642578126	-353.6214294433594	187.6363067626953	-635.5803222656251	-443.6752319335939	99.90094757080081	-617.8510131835939	-409.8570861816407	104.4773483276367	-702.1871948242189	-499.7801818847657	47.51868438720704	-678.6522216796876	-279.4989929199219	56.44316482543947	-641.4505615234376	-291.0513305664063	59.70062255859376	-602.4650878906251	-341.6993713378907	35.31284713745118	-558.0855712890626	nan	nan	nan	nan	nan	nan	
316	1.575	-77.8341522216797	1600.557006835938	-890.8696289062502	-208.1389923095704	1569.620849609375	-932.9903564453127	-267.8765563964844	1541.595825195313	-801.2094726562502	-306.0641174316407	1448.9658203125	-850.700622558594	-464.2416381835939	1169.857421875	-851.567321777344	-213.5769500732422	1336.866088867188	-840.3154907226565	-235.6720581054688	1403.427001953125	-1012.971008300781	-335.9982299804688	1312.053588867188	-1172.3837890625	-340.0908203125001	1262.849731445313	-1167.596313476563	-375.1084899902344	1273.047607421875	-1214.745849609375	-418.1481933593751	1241.90283203125	-1258.499267578125	-480.7456359863282	1263.871459960938	-1220.367431640625	-498.062713623047	1023.179504394531	-1078.954223632813	-459.8630371093751	981.144958496094	-1128.618896484375	-448.9870605468751	1015.979370117188	-1033.853637695313	-251.0277862548829	1390.032958984375	-671.6546020507814	-380.5757141113282	1338.572265625	-519.0479736328126	-377.1721191406251	1289.697387695313	-510.8678588867189	-420.5285034179689	1305.0224609375	-472.3287048339845	-456.133514404297	1254.0625	-432.0870361328126	-524.0461425781251	1264.10205078125	-484.6150207519532	-460.812469482422	1045.715209960938	-628.8771362304689	-439.4357299804689	998.1271972656252	-572.4798583984376	-404.2593688964845	1034.659423828125	-673.5828247070314	-374.2888793945313	947.2022094726565	-948.1027832031252	-381.6646423339844	943.2670898437502	-739.8035888671876	-537.2897949218751	1046.655883789063	-845.5857543945315	-552.7571411132814	1019.566711425781	-874.1948852539065	-558.0524291992189	1020.602478027344	-818.1289672851565	-426.4239196777345	723.7318115234376	-1066.563720703125	-359.0765991210938	677.0759277343751	-1089.05517578125	-317.8284606933594	700.0217895507814	-1086.547973632813	-352.5971069335938	616.8719482421876	-1084.295654296875	-281.7564086914063	512.4538574218751	-1099.974487304688	-280.1026916503907	474.946746826172	-979.0042724609377	-290.2620544433594	288.2174072265626	-1091.314697265625	-369.8048095703126	276.2466125488282	-1132.240600585938	-331.3205871582032	256.2464294433594	-1120.208374023438	-344.6441040039063	175.0614013671875	-1095.938232421875	-432.2322692871095	103.074333190918	-1119.126831054688	-392.2266235351564	106.9525222778321	-1036.168579101563	-487.8728637695314	43.13966369628907	-1074.5712890625	-265.9582214355469	59.78829956054689	-1076.1923828125	-271.0552978515626	57.42578887939455	-1122.33935546875	-321.8077697753907	32.17074966430665	-1167.073120117188	-396.1666870117189	728.3983764648439	-617.7572631835939	-342.3689880371094	688.0603027343751	-607.7723388671876	-311.7475585937501	699.9704589843751	-614.0852050781251	-342.2117004394532	603.5889892578126	-613.6847534179689	-294.8359680175782	492.0848999023439	-605.9846191406251	-281.2437133789063	475.5491027832032	-732.8541870117189	-298.9712219238282	302.8502502441407	-617.0071411132814	-396.748260498047	258.3221740722657	-601.2890014648439	-354.9069824218751	238.4744415283204	-605.5220336914064	-352.8232421875001	187.1884460449219	-635.6515502929689	-443.4118652343751	100.0153961181641	-617.8440551757814	-409.5642395019532	104.3430709838867	-702.2778930664064	-499.671112060547	47.58893966674805	-678.7277832031251	-279.5420532226563	56.6772918701172	-641.4793701171876	-291.0246276855469	59.6687469482422	-602.4378051757814	-341.7133178710938	35.3315773010254	-558.0726318359376	nan	nan	nan	nan	nan	nan	
